<?xml version="1.0" standalone="no"?>
<!DOCTYPE svg PUBLIC "-//W3C//DTD SVG 20010904//EN"
 "http://www.w3.org/TR/2001/REC-SVG-20010904/DTD/svg10.dtd">
<svg version="1.0" xmlns="http://www.w3.org/2000/svg"
 width="320.000000pt" height="320.000000pt" viewBox="0 0 320.000000 320.000000"
 preserveAspectRatio="xMidYMid meet">
<metadata>
Created by potrace 1.16, written by Peter Selinger 2001-2019
</metadata>
<g transform="translate(0.000000,320.000000) scale(0.100000,-0.100000)"
fill="#000000" stroke="none">
<path d="M1475 2816 c-150 -30 -304 -110 -421 -218 l-31 -29 -5 60 c-7 102
-62 156 -158 156 -71 0 -105 -21 -137 -85 -22 -43 -23 -54 -23 -317 0 -266 -1
-275 -24 -331 -189 -449 -145 -932 115 -1268 67 -87 209 -215 295 -266 171
-100 318 -141 509 -142 266 -1 493 89 686 272 189 179 299 381 344 635 21 119
16 360 -10 477 -40 179 -115 369 -202 512 l-41 67 19 38 c10 20 19 49 19 63
-1 44 -36 106 -75 130 -31 19 -46 22 -102 17 l-66 -5 -66 54 c-77 63 -241 148
-326 169 -88 22 -218 27 -300 11z m267 -85 c124 -32 259 -108 365 -204 60 -56
183 -197 230 -267 87 -128 179 -360 207 -520 20 -114 30 -268 22 -323 l-7 -45
-90 23 c-50 13 -93 25 -95 28 -3 3 -25 90 -49 193 -38 167 -44 208 -49 354 -5
126 -10 168 -21 176 -8 6 -114 41 -237 78 l-223 68 -99 -47 -99 -46 -119 47
-120 46 -218 -97 c-121 -54 -221 -104 -224 -112 -3 -7 1 -93 10 -191 l16 -177
-52 -140 c-28 -77 -55 -144 -60 -148 -4 -5 -48 -19 -98 -32 l-91 -23 -7 46
c-9 63 3 229 27 344 52 258 181 507 358 691 234 243 483 339 723 278z m-802
-202 c0 -35 -9 -53 -60 -121 -33 -44 -67 -93 -75 -109 -9 -16 -18 -29 -20 -29
-3 0 -5 23 -5 51 0 37 4 50 13 46 6 -2 22 0 35 4 18 7 23 15 20 36 -2 23 -9
29 -38 34 -27 5 -29 7 -10 8 37 2 52 15 48 42 -2 19 -10 25 -35 27 -27 3 -33
7 -33 28 0 23 2 24 80 24 l80 0 0 -41z m553 -371 l107 -41 102 47 101 47 96
-30 c53 -16 141 -43 197 -60 l101 -31 6 -157 c5 -137 11 -182 47 -333 22 -96
43 -180 45 -187 2 -7 -25 -44 -60 -83 -36 -38 -65 -76 -65 -83 -2 -50 -29
-310 -34 -314 -3 -4 -124 1 -268 11 l-263 17 -185 -26 c-102 -14 -201 -28
-220 -31 -31 -4 -46 3 -123 58 -72 51 -87 66 -83 83 3 11 11 59 18 107 l11 87
-56 74 c-31 41 -57 80 -57 88 0 8 25 79 55 158 l54 144 -15 171 c-8 94 -11
172 -7 174 4 1 87 38 183 82 96 43 182 77 190 74 8 -2 63 -23 123 -46z m1057
-873 c0 -7 -11 -52 -25 -100 -112 -387 -415 -665 -789 -726 -94 -15 -264 -7
-356 17 -261 68 -482 245 -618 494 -40 74 -94 221 -107 291 l-7 37 97 23 98
24 38 -44 c64 -76 65 -78 46 -198 -21 -126 -31 -107 118 -212 98 -69 101 -71
147 -65 l48 7 -16 -32 c-59 -119 105 -223 197 -125 31 34 34 120 5 153 -11 12
-17 23 -15 25 2 2 39 8 82 15 87 12 194 14 286 5 56 -6 60 -8 41 -21 -51 -36
-63 -110 -27 -164 82 -122 270 -10 202 121 -8 16 -23 34 -32 40 -13 7 17 9
108 4 95 -5 128 -4 134 6 4 7 15 92 24 189 l16 178 52 60 53 61 100 -25 c61
-16 100 -30 100 -38z"/>
<path d="M2057 2504 c-3 -4 25 -41 64 -83 203 -219 336 -522 374 -854 5 -47
10 -58 23 -55 21 4 19 59 -9 206 -53 276 -182 540 -352 719 -65 69 -85 82
-100 67z"/>
<path d="M1109 2021 l-29 -29 0 -462 0 -462 29 -29 29 -29 460 0 460 0 31 29
31 29 0 462 0 462 -29 29 -29 29 -462 0 -462 0 -29 -29z m929 -53 c17 -17 17
-859 0 -876 -17 -17 -859 -17 -876 0 -17 17 -17 859 0 876 17 17 859 17 876 0z"/>
<path d="M725 1130 c-3 -5 7 -38 24 -73 77 -162 219 -331 356 -426 80 -55 174
-103 187 -95 21 13 3 33 -54 60 -175 82 -336 247 -442 453 -45 88 -58 102 -71
81z"/>
<path d="M1585 753 c-95 -24 -124 -157 -47 -212 51 -36 114 -31 158 13 29 29
34 41 34 79 0 53 -27 93 -76 113 -35 15 -37 15 -69 7z"/>
</g>
</svg>
